<svg xmlns="http://www.w3.org/2000/svg" width="1240" height="1240"><path d="M567 65.102c-155.114 5.735-311.219 34.665-461 85.435-21.163 7.174-67.218 24.056-76.875 28.18l-4.375 1.869 6.37 5.457c3.504 3.001 7.272 6.273 8.375 7.27 7.651 6.919 196.454 166.966 197.08 167.064.435.067 1.335-3.103 1.999-7.047 9.69-57.509 56.795-77.311 186.9-78.569l26.974-.261 83.526 468.691c45.939 257.78 83.808 468.38 84.152 468 .344-.38 37.873-211.066 83.399-468.191 45.525-257.125 83.057-467.828 83.404-468.23.791-.916 67.061.829 84.571 2.226 83.388 6.655 117.772 25.359 128.166 69.719 1.389 5.932 2.72 11.809 2.956 13.06.377 1.999 4.344-1.098 32.653-25.493 149.697-128.993 177.809-153.313 178.003-153.991.652-2.278-97.446-36.599-142.278-49.778-166.061-48.817-340.502-71.456-504-65.411" fill="undefined" fill-rule="evenodd"/></svg>